<?xml version="1.0" encoding="utf-8"?>
<!-- Svg Vector Icons : http://www.onlinewebfonts.com/icon -->
<!DOCTYPE svg PUBLIC "-//W3C//DTD SVG 1.1//EN" "http://www.w3.org/Graphics/SVG/1.1/DTD/svg11.dtd">
<svg version="1.1" xmlns="http://www.w3.org/2000/svg" xmlns:xlink="http://www.w3.org/1999/xlink" x="0px" y="0px" viewBox="0 0 1000 1000" enable-background="new 0 0 1000 1000" xml:space="preserve">
<metadata> Svg Vector Icons : http://www.onlinewebfonts.com/icon </metadata>
<g><g transform="translate(0.000000,511.000000) scale(0.100000,-0.100000)"><path d="M9102.5,4957.9c-97.7-68.4-94.5-192.1,9.8-260.5c74.9-48.9,87.9-48.9,162.8,0c104.2,68.4,107.5,192.1,9.8,260.5c-39.1,29.3-81.4,52.1-91.2,52.1C9183.9,5010,9141.6,4987.2,9102.5,4957.9z"/><path d="M6360.3,4619.2c-74.9-74.9-78.2-107.5-32.6-198.7c39.1-71.6,192.1-84.7,254-22.8c61.9,61.9,48.9,214.9-22.8,254C6467.7,4697.3,6435.2,4694.1,6360.3,4619.2z"/><path d="M7409,3730.1c-628.5-628.6-758.8-775.1-749.1-840.2c26-185.6,120.5-117.3,921.7,687.2c670.9,670.9,775.1,791.4,745.8,840.2C8242.7,4550.8,8180.8,4501.9,7409,3730.1z"/><path d="M4787.3,3648.7c-228-231.2-260.5-306.1-153.1-364.8c84.7-45.6,136.8-16.3,371.3,221.5c162.8,166.1,188.9,208.4,169.3,280.1C5139,3932,5031.5,3892.9,4787.3,3648.7z"/><path d="M3526.9,3739.9c-74.9-74.9-78.2-107.5-32.6-198.7c39.1-71.6,192.1-84.7,254-22.8c61.9,61.9,48.9,214.9-22.8,254C3634.4,3818,3601.8,3814.8,3526.9,3739.9z"/><path d="M5210.7,2801.9c-478.8-478.7-869.6-892.4-869.6-921.7c0-61.9,65.1-127,127-127c58.6,0,1755.4,1683.7,1781.4,1768.4c22.8,68.4-39.1,153.1-114,153.1C6106.3,3674.7,5692.6,3283.9,5210.7,2801.9z"/><path d="M2686.7,3472.8c-48.8-48.8-52.1-195.4,0-247.5c58.6-58.6,172.6-45.6,241,29.3c55.4,61.9,55.4,74.9,9.8,153.1C2885.3,3505.4,2751.8,3537.9,2686.7,3472.8z"/><path d="M7213.5,2297.1C6585,1665.3,6067.2,1137.7,6067.2,1124.7c0-65.1,71.6-153.1,123.7-153.1c29.3,0,579.7,524.3,1224.6,1169.2c990,990,1162.6,1178.9,1143.1,1237.6c-13,48.9-48.9,68.4-107.5,68.4C8376.2,3446.8,8158,3241.6,7213.5,2297.1z"/><path d="M2628,1486.2C1677.1,532,849.9-321.3,791.2-406c-149.8-224.7-342-651.3-410.4-918.4c-91.2-345.2-84.7-1055.2,9.8-1390.6c149.8-517.8,377.8-905.4,749-1270.1c387.5-384.3,810.9-622,1335.3-745.8c241-58.6,358.2-65.1,742.5-55.4c403.8,13,491.8,26,765.3,120.5c622,208.4,661.1,244.3,2403.5,1970.3c863,859.8,1569.8,1582.8,1569.8,1602.3c0,52.1-91.2,143.3-140,143.3c-19.6,0-719.8-680.7-1553.5-1507.9c-833.7-830.5-1573-1553.5-1644.7-1608.8c-195.4-149.8-569.9-325.7-853.3-407.1c-332.2-94.4-928.2-100.9-1263.6-13c-478.8,123.8-1032.4,462.4-1322.2,810.9c-413.6,491.8-615.5,1042.2-615.5,1687c0,521.1,143.3,996.6,426.6,1420c55.4,87.9,879.3,934.7,1823.8,1882.4c947.7,951,1722.8,1748.9,1722.8,1778.2c0,61.9-65.1,127-130.3,127C4380.2,3218.8,3579,2437.2,2628,1486.2z"/><path d="M8646.5,2495.8c-65.1-65.1-45.6-214.9,29.3-257.3c143.3-74.9,302.9,84.7,224.7,231.2C8861.5,2544.6,8711.6,2560.9,8646.5,2495.8z"/><path d="M5777.3,2098.5c-192.1-192.1-234.5-254-214.9-309.4c39.1-127,153.1-81.4,384.3,153.1c218.2,221.5,270.3,338.7,166.1,377.8C6031.3,2352.5,6028.1,2349.2,5777.3,2098.5z"/><path d="M7311.3,1124.7c-491.8-491.8-596-612.3-586.2-677.4c6.5-55.4,32.6-81.4,91.2-87.9c68.4-6.5,188.9,97.7,700.2,612.3c527.6,530.8,612.3,628.5,583,677.4c-19.6,29.3-71.6,58.6-114,65.1C7923.5,1720.7,7793.2,1606.7,7311.3,1124.7z"/><path d="M3712.6,1544.8c-618.8-166.1-641.6-1094.3-26.1-1094.3c71.7,0,260.5,29.3,423.4,68.4c228,52.1,319.2,87.9,390.8,159.6c228,228,114,596-244.3,788.1C4051.2,1574.1,3904.7,1596.9,3712.6,1544.8z M4126.2,1255c149.8-81.4,260.5-250.8,231.2-345.2c-22.8-71.7-104.2-107.5-446.2-182.4c-280.1-61.9-364.7-39.1-420.1,104.2c-42.3,110.7,9.8,267,127,374.5C3774.4,1352.7,3930.7,1365.7,4126.2,1255z"/><path d="M7832.3,375.7C7070.2-386.4,6718.5-760.9,6718.5-806.5c0-97.7,78.2-156.4,153.1-114c32.6,16.3,563.4,537.4,1175.7,1152.9c1029.2,1029.1,1117.1,1126.8,1084.5,1192C9047.1,1577.4,8982,1525.3,7832.3,375.7z"/><path d="M5155.3,1232.2c-78.2-146.6,68.4-299.6,214.9-231.2c87.9,39.1,107.5,188.9,39.1,257.3C5344.2,1323.4,5194.4,1307.1,5155.3,1232.2z"/><path d="M1250.5,1088.9c-68.4-84.7-32.6-224.7,71.6-260.5c74.9-26.1,101-19.5,159.6,39.1c58.6,58.6,65.1,84.7,39.1,159.6c-22.8,68.4-55.4,94.4-130.3,100.9C1331.9,1134.5,1273.2,1118.2,1250.5,1088.9z"/><path d="M9392.3,909.8c-52.1-94.4-45.6-149.8,29.3-214.9c133.5-120.5,332.2,55.4,237.7,208.4C9607.3,984.7,9434.7,987.9,9392.3,909.8z"/><path d="M5591.7,548.3c-114-45.6-234.5-218.2-257.3-371.3c-39.1-247.5,48.8-413.6,257.3-491.8c117.3-45.6,162.8-48.8,276.8-16.3c260.5,68.4,527.6,400.6,469,579.7c-61.9,198.7-110.7,234.5-426.6,296.4C5712.2,587.3,5682.9,587.3,5591.7,548.3z M6063.9,235.6c42.4-35.8,42.4-55.4,3.3-127C6015,10.9,5842.4-103.1,5748-103.1c-153.1,0-221.5,201.9-117.3,351.7c45.6,65.1,68.4,71.7,218.2,52.1C5943.4,291,6037.8,261.7,6063.9,235.6z"/><path d="M2439.2,144.4c-719.7-260.5-1302.7-964-1419.9-1722.8c-74.9-462.5-6.5-700.2,322.4-1097.5c123.8-149.8,267.1-381,374.5-602.5c211.7-436.4,377.8-631.8,648.1-765.3c273.6-133.5,524.3-175.9,918.4-153.1c283.3,19.6,351.7,35.8,534.1,127c215,107.5,299.6,195.4,703.5,710c91.2,114,286.6,319.2,439.7,452.7c550.4,485.2,703.4,794.6,677.4,1384.1c-13,286.6-29.3,364.7-114,547.1C5337.6-581.8,5080.4-406,4396.5-220.3c-218.2,61.9-550.4,179.1-739.3,267c-325.7,149.8-358.2,159.6-667.6,169.4C2709.5,222.6,2634.6,212.8,2439.2,144.4z M3201.2-51c97.7-22.8,302.9-104.2,455.9-175.8c153.1-71.7,452.7-175.9,667.6-234.5c215-55.4,478.8-149.8,583-205.2C5243.2-845.6,5393-1145.2,5393-1637c0-244.2-13-306.1-97.7-491.8c-104.2-221.5-198.6-328.9-605.7-687.2c-136.8-123.8-342-342-452.7-488.5c-442.9-592.7-498.3-625.3-1100.8-625.3c-394.1,0-459.2,9.8-609,78.2c-241,107.5-413.6,312.6-596,703.4c-101,214.9-234.5,426.6-374.5,599.3C1296-2226.5,1247.2-2119,1247.2-1852c0,482,185.6,895.6,586.2,1292.9c289.8,293.1,495,416.9,814.2,501.6C2875.6,4.4,2979.8,4.4,3201.2-51z"/><path d="M2930.9-497.1c-84.7-48.9-153.1-205.2-153.1-351.7c0-214.9,205.2-403.8,319.2-289.8c55.4,55.4,48.9,117.2-26,211.7c-84.7,107.5-81.4,127,19.5,221.5C3246.8-562.3,3116.6-386.4,2930.9-497.1z"/><path d="M1833.4-1086.6c-250.8-172.6-319.2-569.9-153.1-895.6c45.6-91.2,123.8-195.4,172.6-234.5c175.9-136.8,423.4-156.3,641.6-45.6c228,114,293.1,472.2,127,667.6c-52.1,58.6-130.3,192.1-179.1,293.1C2315.4-1018.2,2064.6-930.3,1833.4-1086.6z M2110.2-1262.5c29.3-13,94.4-110.7,146.6-221.5c52.1-107.5,127-241,169.4-289.8c68.4-84.7,71.6-97.7,22.8-179.1c-61.9-114-241-162.8-374.5-101c-120.5,58.6-241,270.3-241,429.9c0,140,68.4,296.4,153.1,345.2C2058.1-1236.4,2045.1-1239.7,2110.2-1262.5z"/><path d="M4236.9-1210.4c-120.5-71.7-413.6-384.3-433.1-465.7c-32.6-117.3,91.2-322.4,244.3-410.4c250.8-140,609-61.9,723,162.8c78.2,149.8,71.6,273.6-19.5,475.5C4640.7-1216.9,4412.8-1109.4,4236.9-1210.4z M4520.2-1536.1c58.6-114,65.1-273.6,6.5-319.2c-120.5-101-377.8-65.1-449.4,61.9c-26,52.1-6.5,87.9,107.5,201.9C4357.4-1415.5,4451.8-1402.5,4520.2-1536.1z"/><path d="M3380.4-2353.5c-133.5-39.1-211.7-149.8-211.7-306.1c0-218.2,146.6-342,407.1-342c355,0,462.5,426.6,149.8,583C3556.2-2334,3491.1-2320.9,3380.4-2353.5z M3575.8-2617.3c91.2-42.3,107.5-107.5,29.3-136.8c-74.9-29.3-101-26-156.3,29.3c-48.8,48.8-39.1,146.6,16.3,146.6C3478.1-2578.2,3530.2-2594.5,3575.8-2617.3z"/><path d="M2458.7-2943c-127-127,84.7-465.7,276.8-442.9c71.6,6.5,94.4,29.3,100.9,97.7c9.8,68.4-6.5,97.7-65.1,127c-45.6,19.6-91.2,78.2-110.7,136.8C2628-2910.4,2530.3-2871.3,2458.7-2943z"/><path d="M8372.9-357.1c-156.3-156.3-286.6-302.9-286.6-322.4c0-48.9,91.2-140,140-140c19.6,0,166.1,130.3,325.7,289.9c250.8,254,283.3,299.6,254,355C8731.2-34.7,8672.6-57.5,8372.9-357.1z"/><path d="M9086.2-454.8c-110.7-120.5-48.9-267.1,107.5-267.1c166.1,0,224.7,179.1,91.2,273.6C9190.4-379.9,9151.3-383.2,9086.2-454.8z"/><path d="M6295.1-1164.8c-175.9-166.1-208.5-280.1-97.7-338.7c55.4-29.3,91.2-13.1,244.3,133.5c179.1,169.4,211.7,244.2,140,315.9C6516.6-988.9,6461.2-1008.4,6295.1-1164.8z"/><path d="M8809.4-1282c-91.2-91.2-9.8-286.6,120.5-286.6c32.6,0,84.7,29.3,117.2,65.1c87.9,97.7,32.6,241-97.7,254C8894-1242.9,8832.2-1259.2,8809.4-1282z"/><path d="M7024.7-2496.8c-48.8-74.9-48.8-87.9,0-162.8c32.6-48.8,84.7-81.4,133.5-81.4c48.8,0,100.9,32.6,133.5,81.4c48.8,74.9,48.8,87.9,0,162.8c-32.6,48.8-84.7,81.4-133.5,81.4C7109.3-2415.4,7057.2-2447.9,7024.7-2496.8z"/></g></g>
</svg>